<?xml version="1.0" encoding="UTF-8" standalone="no"?>
<svg
   width="369.13"
   height="165.08"
   viewBox="0 0 369.13 165.08"
   version="1.1"
   id="svg45"
   xmlns="http://www.w3.org/2000/svg"
   xmlns:svg="http://www.w3.org/2000/svg">
  <defs
     id="defs1">
    <style
       id="style1">
      .cls-1 {
        fill: #d3562c;
      }

      .cls-1, .cls-2, .cls-3, .cls-4, .cls-5, .cls-6, .cls-7 {
        stroke-width: 0px;
      }

      .cls-8 {
        isolation: isolate;
      }

      .cls-3 {
        fill: #353070;
      }

      .cls-4 {
        fill: none;
      }

      .cls-9 {
        opacity: .07;
      }

      .cls-9, .cls-10 {
        mix-blend-mode: multiply;
      }

      .cls-5 {
        fill: #eb743b;
      }

      .cls-10 {
        opacity: .25;
      }

      .cls-11 {
        clip-path: url(#clippath);
      }

      .cls-6 {
        fill: #474596;
      }

      .cls-7 {
        fill: #fffedb;
      }
    </style>
    <clipPath
       id="clippath">
      <rect
         class="cls-4"
         x="66"
         y="25.5"
         width="51.43"
         height="90.790001"
         id="rect1" />
    </clipPath>
  </defs>
  <g
     class="cls-8"
     id="g45">
    <g
       id="Layer_2"
       data-name="Layer 2">
      <g
         id="Layer_1-2"
         data-name="Layer 1">
        <g
           id="g27">
          <polygon
             class="cls-5"
             points="127,109.08 127,35.08 66,0.08 66,144.08 "
             id="polygon1" />
          <polygon
             class="cls-3"
             points="0,109 61,144 61,0 0,35 "
             id="polygon2" />
          <g
             class="cls-9"
             id="g10">
            <g
               class="cls-11"
               clip-path="url(#clippath)"
               id="g9">
              <path
                 class="cls-2"
                 d="m 83.3,91.81 c 0.39,-0.65 1.07,-1.03 1.82,-1.03 0.38,0 0.75,0.1 1.08,0.3 1,0.6 1.33,1.9 0.74,2.9 -0.39,0.65 -1.06,1.03 -1.82,1.03 -0.38,0 -0.75,-0.11 -1.08,-0.3 -0.48,-0.29 -0.83,-0.75 -0.96,-1.29 -0.14,-0.55 -0.06,-1.12 0.23,-1.6 m 12.59,22.36 c -0.49,0.42 -1.02,0.51 -1.37,0.51 -0.62,0 -1.21,-0.27 -1.61,-0.74 -0.76,-0.88 -0.66,-2.22 0.23,-2.98 0.49,-0.42 1.02,-0.51 1.37,-0.51 0.62,0 1.2,0.27 1.61,0.74 0.37,0.43 0.55,0.98 0.5,1.54 -0.04,0.56 -0.3,1.07 -0.73,1.44"
                 id="path2" />
              <path
                 class="cls-2"
                 d="m 75,45.69 c 0.07,0.02 0.14,0.03 0.21,0.05 C 75.14,45.73 75.07,45.71 75,45.69"
                 id="path3" />
              <path
                 class="cls-2"
                 d="m 86.38,55.34 c 0.17,-0.27 0.39,-0.49 0.67,-0.66 0.33,-0.21 0.72,-0.32 1.12,-0.32 0.4,0 0.79,0.11 1.12,0.32 0.99,0.63 1.28,1.94 0.66,2.92 -0.39,0.62 -1.06,0.99 -1.8,0.99 -0.4,0 -0.78,-0.11 -1.12,-0.33 -0.98,-0.63 -1.28,-1.94 -0.66,-2.92 m 6.39,-20.19 c -0.6,0.95 -1.94,1.27 -2.91,0.65 l -0.1,-0.06 c -0.91,-0.65 -1.16,-1.9 -0.56,-2.85 0.38,-0.61 1.05,-0.98 1.78,-0.98 0.4,0 0.79,0.11 1.12,0.33 0.48,0.3 0.81,0.77 0.94,1.33 0.12,0.55 0.03,1.1 -0.28,1.58"
                 id="path4" />
              <path
                 class="cls-2"
                 d="m 109.53,46.75 c 0.39,-0.62 1.05,-0.98 1.78,-0.98 0.4,0 0.79,0.11 1.12,0.33 0.48,0.3 0.81,0.77 0.94,1.33 0.12,0.55 0.02,1.11 -0.28,1.58 -0.6,0.95 -1.94,1.27 -2.91,0.65 l -0.09,-0.06 c -0.92,-0.65 -1.16,-1.9 -0.56,-2.85 m 0,23.46 c 0.39,-0.61 1.05,-0.98 1.78,-0.98 0.4,0 0.79,0.11 1.12,0.33 0.48,0.3 0.81,0.77 0.94,1.33 0.12,0.55 0.02,1.11 -0.28,1.58 -0.6,0.95 -1.94,1.27 -2.91,0.65 l -0.09,-0.06 c -0.92,-0.65 -1.16,-1.9 -0.56,-2.85 m 0,26.3 c 0.39,-0.61 1.05,-0.98 1.78,-0.98 0.4,0 0.79,0.11 1.12,0.33 0.48,0.3 0.81,0.77 0.94,1.33 0.12,0.55 0.02,1.11 -0.28,1.58 -0.6,0.95 -1.94,1.27 -2.91,0.65 l -0.09,-0.06 c -0.92,-0.65 -1.16,-1.9 -0.56,-2.85"
                 id="path5" />
              <path
                 class="cls-2"
                 d="m 99.18,106.19 c -1.16,-1.36 -2.86,-2.14 -4.65,-2.14 -1.46,0 -2.88,0.53 -3.98,1.48 -1.61,1.38 -2.33,3.43 -2.09,5.4 -1.95,0.7 -4.26,1.37 -5.33,1.33 -0.82,-0.04 -1.3,-0.34 -2.22,-0.97 -1.17,-0.79 -2.42,-1.51 -4.15,-1.85 2.94,-2.76 6.01,-6.83 8.58,-12.83 2.06,-0.08 3.98,-1.19 5.04,-2.97 1.72,-2.9 0.77,-6.66 -2.12,-8.39 -0.95,-0.57 -2.03,-0.86 -3.13,-0.86 -2.15,0 -4.16,1.14 -5.26,2.99 -0.84,1.41 -1.08,3.05 -0.68,4.64 0.35,1.39 1.16,2.59 2.3,3.43 -4.05,9.22 -9.22,13.08 -12.56,14.68 -0.13,0.04 -0.25,0.1 -0.36,0.17 -1.19,0.53 -2.05,0.71 -2.56,0.81 v 4 c 0.27,-0.03 1.88,-0.12 4.25,-1.19 5.35,-1.36 6.84,-0.35 8.41,0.71 1.02,0.69 2.29,1.55 4.26,1.66 0.1,0 0.2,0 0.31,0 2.11,0 5.17,-1.02 7.02,-1.72 1.14,1.12 2.68,1.75 4.29,1.75 1.46,0 2.88,-0.53 3.98,-1.48 1.24,-1.06 1.99,-2.55 2.12,-4.18 0.12,-1.63 -0.39,-3.21 -1.46,-4.45 M 83.3,89.41 c 0.39,-0.65 1.07,-1.03 1.82,-1.03 0.38,0 0.75,0.11 1.08,0.3 1,0.6 1.33,1.9 0.74,2.9 -0.39,0.65 -1.06,1.03 -1.82,1.03 -0.38,0 -0.75,-0.11 -1.08,-0.3 -0.48,-0.29 -0.83,-0.75 -0.96,-1.29 -0.14,-0.55 -0.06,-1.12 0.23,-1.6 m 12.59,22.35 c -0.49,0.42 -1.02,0.51 -1.37,0.51 -0.62,0 -1.21,-0.27 -1.61,-0.73 -0.76,-0.88 -0.66,-2.22 0.23,-2.98 0.49,-0.42 1.02,-0.51 1.37,-0.51 0.62,0 1.2,0.27 1.61,0.74 0.37,0.43 0.55,0.98 0.5,1.54 -0.05,0.56 -0.3,1.07 -0.73,1.44"
                 id="path6" />
              <path
                 class="cls-2"
                 d="m 75,43.29 c 0.07,0.02 0.14,0.03 0.21,0.05 C 75.14,43.33 75.07,43.31 75,43.29"
                 id="path7" />
              <path
                 class="cls-2"
                 d="m 96.95,30.29 c -0.36,-1.6 -1.32,-2.96 -2.71,-3.84 -0.98,-0.62 -2.11,-0.94 -3.26,-0.94 -2.12,0 -4.05,1.07 -5.17,2.85 -1.35,2.14 -1.22,4.8 0.14,6.76 -3.65,4.12 -8.71,4.31 -9.94,4.29 -3.69,-1.6 -7.23,-2.16 -10,-2.32 v 4 c 2.44,0.14 5.55,0.69 8.75,2.14 0,0 0,0 0.01,0 3.45,1.56 6.33,3.93 8.61,7.04 -0.13,0.17 -0.26,0.35 -0.38,0.54 -1.8,2.85 -0.94,6.65 1.9,8.44 0.98,0.62 2.11,0.95 3.27,0.95 2.11,0 4.05,-1.06 5.18,-2.85 1.81,-2.85 0.95,-6.64 -1.91,-8.45 -1.38,-0.87 -3.09,-1.11 -4.67,-0.75 -1.54,-2.16 -3.32,-4.02 -5.34,-5.57 2.52,-0.78 5.4,-2.27 7.78,-5.09 0.57,0.17 1.17,0.27 1.77,0.27 2.12,0 4.05,-1.07 5.17,-2.85 0.87,-1.38 1.16,-3.01 0.8,-4.6 M 86.38,52.93 c 0.17,-0.27 0.39,-0.49 0.67,-0.66 0.33,-0.21 0.72,-0.32 1.12,-0.32 0.4,0 0.79,0.11 1.12,0.32 0.99,0.63 1.28,1.94 0.66,2.92 -0.39,0.62 -1.06,0.99 -1.8,0.99 -0.4,0 -0.78,-0.11 -1.12,-0.33 -0.98,-0.62 -1.28,-1.94 -0.66,-2.92 m 6.39,-20.18 c -0.6,0.95 -1.94,1.27 -2.91,0.65 l -0.1,-0.06 c -0.91,-0.65 -1.16,-1.9 -0.56,-2.85 0.38,-0.61 1.05,-0.98 1.78,-0.98 0.4,0 0.79,0.11 1.12,0.33 0.48,0.31 0.81,0.77 0.94,1.33 0.12,0.55 0.03,1.11 -0.28,1.58"
                 id="path8" />
              <path
                 class="cls-2"
                 d="m 105.65,71.27 c 0.42,1.03 1.14,1.96 2.11,2.65 0.07,0.05 0.15,0.1 0.28,0.19 0.98,0.62 2.11,0.95 3.27,0.95 2.12,0 4.05,-1.07 5.17,-2.85 0.88,-1.38 1.16,-3.01 0.8,-4.61 -0.36,-1.6 -1.32,-2.96 -2.71,-3.84 -0.98,-0.62 -2.11,-0.94 -3.27,-0.94 -0.12,0 -0.25,0 -0.37,0.02 -0.71,-3.16 -0.92,-7.77 0.03,-11.26 0.11,0.01 0.23,0.02 0.34,0.02 2.12,0 4.05,-1.07 5.17,-2.85 0.88,-1.38 1.16,-3.01 0.8,-4.6 -0.36,-1.6 -1.32,-2.96 -2.71,-3.84 -0.98,-0.62 -2.11,-0.94 -3.27,-0.94 -2.11,0 -4.05,1.07 -5.17,2.85 -1.6,2.53 -1.12,5.8 1.02,7.77 0.02,0.02 0.05,0.04 0.07,0.06 -1.35,4.52 -1.14,10.32 -0.04,14.42 -0.14,0.13 -0.29,0.26 -0.43,0.4 -0.23,0.26 -0.45,0.53 -0.63,0.82 -0.32,0.5 -0.55,1.03 -0.71,1.58 -3.37,0.49 -5.2,1.67 -6.82,2.73 -2.04,1.33 -3.96,2.57 -9.64,2.67 -1.96,-0.23 -3.55,-0.18 -5.29,-0.12 -1.43,0.05 -2.91,0.11 -4.85,0 -1.34,-0.07 -2.1,-0.88 -3.46,-2.42 -1.8,-2.06 -4.22,-4.65 -9.37,-5.02 v 4 c 3.29,0.3 4.8,1.89 6.36,3.67 1.49,1.69 3.17,3.62 6.26,3.78 2.12,0.11 3.76,0.05 5.21,0 2.49,-0.09 4.45,-0.16 7.85,0.68 2.61,0.64 12.1,9.67 14.77,14.32 -0.11,0.14 -0.22,0.28 -0.31,0.43 -1.74,2.76 -1.03,6.39 1.62,8.25 0.07,0.05 0.15,0.11 0.28,0.19 0.98,0.62 2.11,0.95 3.27,0.95 2.12,0 4.05,-1.07 5.17,-2.85 0.88,-1.37 1.16,-3.01 0.8,-4.6 -0.36,-1.6 -1.32,-2.96 -2.71,-3.84 -0.98,-0.62 -2.11,-0.94 -3.27,-0.94 -0.53,0 -1.05,0.07 -1.54,0.19 -2.56,-4.19 -8.65,-10.45 -13.19,-13.79 1.81,-0.63 3.05,-1.44 4.21,-2.19 1.43,-0.93 2.61,-1.69 4.86,-2.07 m 3.92,-26.95 c 0.39,-0.61 1.05,-0.98 1.78,-0.98 0.4,0 0.79,0.11 1.12,0.32 0.48,0.3 0.81,0.77 0.94,1.33 0.12,0.55 0.02,1.11 -0.28,1.58 -0.6,0.95 -1.94,1.27 -2.91,0.65 l -0.09,-0.06 c -0.92,-0.65 -1.16,-1.9 -0.56,-2.85 m 0,23.48 c 0.39,-0.62 1.05,-0.98 1.78,-0.98 0.4,0 0.79,0.11 1.12,0.33 0.48,0.31 0.81,0.77 0.94,1.33 0.12,0.55 0.02,1.11 -0.28,1.58 -0.6,0.95 -1.94,1.27 -2.91,0.65 l -0.09,-0.06 c -0.92,-0.65 -1.16,-1.9 -0.56,-2.85 m 0,26.3 c 0.39,-0.61 1.05,-0.98 1.78,-0.98 0.4,0 0.79,0.11 1.12,0.33 0.48,0.31 0.81,0.78 0.94,1.33 0.12,0.55 0.02,1.11 -0.28,1.58 -0.6,0.95 -1.94,1.27 -2.91,0.66 l -0.09,-0.06 c -0.92,-0.65 -1.16,-1.9 -0.56,-2.85"
                 id="path9" />
            </g>
          </g>
          <path
             class="cls-1"
             d="m 99.18,109.19 c -1.16,-1.36 -2.86,-2.14 -4.65,-2.14 -1.46,0 -2.88,0.53 -3.98,1.48 -1.61,1.38 -2.33,3.43 -2.09,5.4 -1.95,0.7 -4.26,1.37 -5.33,1.33 -0.82,-0.04 -1.3,-0.34 -2.22,-0.97 -1.17,-0.79 -2.42,-1.51 -4.15,-1.85 2.94,-2.76 6.01,-6.83 8.58,-12.83 2.06,-0.08 3.98,-1.19 5.04,-2.97 1.72,-2.9 0.77,-6.66 -2.12,-8.39 -0.95,-0.57 -2.03,-0.86 -3.13,-0.86 -2.15,0 -4.16,1.14 -5.26,2.99 -0.84,1.41 -1.08,3.05 -0.68,4.64 0.35,1.39 1.16,2.59 2.3,3.43 -4.05,9.22 -9.22,13.08 -12.56,14.68 -0.13,0.04 -0.25,0.1 -0.36,0.17 -1.19,0.53 -2.05,0.71 -2.56,0.81 v 4 c 0.27,-0.03 1.88,-0.12 4.25,-1.19 5.35,-1.36 6.84,-0.35 8.41,0.71 1.02,0.69 2.29,1.55 4.26,1.66 0.1,0 0.2,0 0.31,0 2.11,0 5.17,-1.02 7.02,-1.72 1.14,1.12 2.68,1.75 4.29,1.75 1.46,0 2.88,-0.53 3.98,-1.48 1.24,-1.06 1.99,-2.54 2.12,-4.18 0.12,-1.63 -0.39,-3.21 -1.46,-4.45 M 83.3,92.41 c 0.39,-0.65 1.07,-1.03 1.82,-1.03 0.38,0 0.75,0.11 1.08,0.3 1,0.6 1.33,1.9 0.74,2.9 -0.39,0.65 -1.06,1.03 -1.82,1.03 -0.38,0 -0.75,-0.11 -1.08,-0.3 -0.48,-0.29 -0.83,-0.75 -0.96,-1.29 -0.14,-0.55 -0.06,-1.12 0.23,-1.6 m 12.59,22.35 c -0.49,0.42 -1.02,0.51 -1.37,0.51 -0.62,0 -1.21,-0.27 -1.61,-0.73 -0.76,-0.88 -0.66,-2.22 0.23,-2.98 0.49,-0.42 1.02,-0.51 1.37,-0.51 0.62,0 1.2,0.27 1.61,0.74 0.37,0.43 0.55,0.98 0.5,1.54 -0.05,0.56 -0.3,1.07 -0.73,1.44"
             id="path10" />
          <path
             class="cls-2"
             d="m 75,45.69 c 0.07,0.02 0.14,0.03 0.21,0.05 C 75.14,45.73 75.07,45.71 75,45.69"
             id="path11" />
          <path
             class="cls-1"
             d="m 96.95,32.29 c -0.36,-1.6 -1.32,-2.96 -2.71,-3.84 -0.98,-0.62 -2.11,-0.94 -3.26,-0.94 -2.12,0 -4.05,1.06 -5.17,2.85 -1.35,2.14 -1.22,4.8 0.14,6.76 -3.65,4.12 -8.71,4.31 -9.94,4.29 -3.69,-1.61 -7.23,-2.17 -10,-2.32 v 3.99 c 2.44,0.14 5.55,0.69 8.75,2.14 0,0 0,0 0.01,0 3.45,1.56 6.33,3.93 8.61,7.04 -0.13,0.17 -0.26,0.35 -0.38,0.54 -1.8,2.85 -0.94,6.64 1.9,8.44 0.98,0.62 2.11,0.95 3.27,0.95 2.11,0 4.05,-1.07 5.18,-2.85 1.81,-2.85 0.95,-6.64 -1.91,-8.45 -1.38,-0.87 -3.09,-1.11 -4.67,-0.75 -1.54,-2.16 -3.32,-4.02 -5.34,-5.57 2.52,-0.78 5.4,-2.27 7.78,-5.1 0.57,0.17 1.17,0.27 1.77,0.27 2.12,0 4.05,-1.07 5.17,-2.85 0.87,-1.38 1.16,-3.01 0.8,-4.6 M 86.38,54.94 c 0.17,-0.27 0.39,-0.49 0.67,-0.66 0.33,-0.21 0.72,-0.32 1.12,-0.32 0.4,0 0.79,0.11 1.12,0.32 0.99,0.63 1.28,1.94 0.66,2.92 -0.39,0.62 -1.06,0.99 -1.8,0.99 -0.4,0 -0.78,-0.11 -1.12,-0.33 -0.98,-0.63 -1.28,-1.94 -0.66,-2.92 m 6.39,-20.19 c -0.6,0.95 -1.94,1.27 -2.91,0.65 l -0.1,-0.06 c -0.91,-0.65 -1.16,-1.9 -0.56,-2.85 0.38,-0.61 1.05,-0.98 1.78,-0.98 0.4,0 0.79,0.11 1.12,0.33 0.48,0.3 0.81,0.77 0.94,1.33 0.12,0.55 0.03,1.1 -0.28,1.58"
             id="path12" />
          <path
             class="cls-1"
             d="m 105.65,74.27 c 0.42,1.03 1.14,1.96 2.11,2.65 0.07,0.05 0.15,0.1 0.28,0.19 0.98,0.62 2.11,0.95 3.27,0.95 2.12,0 4.05,-1.07 5.17,-2.85 0.88,-1.37 1.16,-3.01 0.8,-4.6 -0.36,-1.6 -1.32,-2.96 -2.71,-3.84 -0.98,-0.62 -2.11,-0.94 -3.27,-0.94 -0.12,0 -0.25,0 -0.37,0.02 -0.71,-3.16 -0.92,-7.77 0.03,-11.26 0.11,0.01 0.23,0.02 0.34,0.02 2.12,0 4.05,-1.07 5.17,-2.85 0.88,-1.38 1.16,-3.01 0.8,-4.6 -0.36,-1.6 -1.32,-2.96 -2.71,-3.84 -0.98,-0.62 -2.11,-0.94 -3.27,-0.94 -2.11,0 -4.05,1.06 -5.17,2.85 -1.6,2.53 -1.12,5.8 1.02,7.77 0.02,0.02 0.05,0.04 0.07,0.06 -1.35,4.52 -1.14,10.32 -0.04,14.42 -0.14,0.13 -0.29,0.25 -0.43,0.4 -0.23,0.26 -0.45,0.53 -0.63,0.82 -0.32,0.5 -0.55,1.03 -0.71,1.58 -3.37,0.49 -5.2,1.67 -6.82,2.73 -2.04,1.32 -3.96,2.57 -9.64,2.66 -1.96,-0.23 -3.55,-0.18 -5.29,-0.12 -1.43,0.05 -2.91,0.11 -4.85,0 -1.34,-0.07 -2.1,-0.88 -3.46,-2.42 -1.8,-2.06 -4.22,-4.65 -9.37,-5.02 v 4 c 3.29,0.3 4.8,1.89 6.36,3.67 1.49,1.69 3.17,3.62 6.26,3.78 2.12,0.11 3.76,0.05 5.21,0 2.49,-0.09 4.45,-0.16 7.85,0.68 2.61,0.64 12.1,9.67 14.77,14.32 -0.11,0.14 -0.22,0.28 -0.31,0.43 -1.74,2.76 -1.03,6.39 1.62,8.25 0.07,0.05 0.15,0.11 0.28,0.19 0.98,0.62 2.11,0.95 3.27,0.95 2.12,0 4.05,-1.07 5.17,-2.85 0.88,-1.37 1.16,-3.01 0.8,-4.6 -0.36,-1.6 -1.32,-2.96 -2.71,-3.84 -0.98,-0.62 -2.11,-0.94 -3.27,-0.94 -0.53,0 -1.05,0.07 -1.54,0.19 -2.56,-4.19 -8.65,-10.45 -13.19,-13.79 1.81,-0.63 3.05,-1.44 4.21,-2.19 1.43,-0.93 2.61,-1.69 4.86,-2.07 m 3.92,-26.95 c 0.39,-0.61 1.05,-0.98 1.78,-0.98 0.4,0 0.79,0.11 1.12,0.32 0.48,0.31 0.81,0.77 0.94,1.33 0.12,0.55 0.02,1.11 -0.28,1.58 -0.6,0.95 -1.94,1.27 -2.91,0.65 l -0.09,-0.06 c -0.92,-0.65 -1.16,-1.9 -0.56,-2.85 m 0,23.48 c 0.39,-0.62 1.05,-0.98 1.78,-0.98 0.4,0 0.79,0.11 1.12,0.33 0.48,0.31 0.81,0.77 0.94,1.33 0.12,0.55 0.02,1.11 -0.28,1.58 -0.6,0.95 -1.94,1.27 -2.91,0.65 l -0.09,-0.06 c -0.92,-0.65 -1.16,-1.9 -0.56,-2.85 m 0,26.3 c 0.39,-0.61 1.05,-0.98 1.78,-0.98 0.4,0 0.79,0.11 1.12,0.33 0.48,0.31 0.81,0.78 0.94,1.33 0.12,0.55 0.02,1.11 -0.28,1.58 -0.6,0.95 -1.94,1.27 -2.91,0.66 l -0.09,-0.06 c -0.92,-0.65 -1.16,-1.9 -0.56,-2.85"
             id="path13" />
          <path
             class="cls-7"
             d="m 99.18,106.19 c -1.16,-1.36 -2.86,-2.14 -4.65,-2.14 -1.46,0 -2.88,0.53 -3.98,1.48 -1.61,1.38 -2.33,3.43 -2.09,5.4 -1.95,0.7 -4.26,1.37 -5.33,1.33 -0.82,-0.04 -1.3,-0.34 -2.22,-0.97 -1.17,-0.79 -2.42,-1.51 -4.15,-1.85 2.94,-2.76 6.01,-6.83 8.58,-12.83 2.06,-0.08 3.98,-1.19 5.04,-2.97 1.72,-2.9 0.77,-6.66 -2.12,-8.39 -0.95,-0.57 -2.03,-0.86 -3.13,-0.86 -2.15,0 -4.16,1.14 -5.26,2.99 -0.84,1.41 -1.08,3.05 -0.68,4.64 0.35,1.39 1.16,2.59 2.3,3.43 -4.05,9.22 -9.22,13.08 -12.56,14.68 -0.13,0.04 -0.25,0.1 -0.36,0.17 -1.19,0.53 -2.05,0.71 -2.56,0.81 v 4 c 0.27,-0.03 1.88,-0.12 4.25,-1.19 5.35,-1.36 6.84,-0.35 8.41,0.71 1.02,0.69 2.29,1.55 4.26,1.66 0.1,0 0.2,0 0.31,0 2.11,0 5.17,-1.02 7.02,-1.72 1.14,1.12 2.68,1.75 4.29,1.75 1.46,0 2.88,-0.53 3.98,-1.48 1.24,-1.06 1.99,-2.55 2.12,-4.18 0.12,-1.63 -0.39,-3.21 -1.46,-4.45 M 83.3,89.41 c 0.39,-0.65 1.07,-1.03 1.82,-1.03 0.38,0 0.75,0.11 1.08,0.3 1,0.6 1.33,1.9 0.74,2.9 -0.39,0.65 -1.06,1.03 -1.82,1.03 -0.38,0 -0.75,-0.11 -1.08,-0.3 -0.48,-0.29 -0.83,-0.75 -0.96,-1.29 -0.14,-0.55 -0.06,-1.12 0.23,-1.6 m 12.59,22.35 c -0.49,0.42 -1.02,0.51 -1.37,0.51 -0.62,0 -1.21,-0.27 -1.61,-0.73 -0.76,-0.88 -0.66,-2.22 0.23,-2.98 0.49,-0.42 1.02,-0.51 1.37,-0.51 0.62,0 1.2,0.27 1.61,0.74 0.37,0.43 0.55,0.98 0.5,1.54 -0.05,0.56 -0.3,1.07 -0.73,1.44"
             id="path14" />
          <path
             class="cls-7"
             d="m 75,43.29 c 0.07,0.02 0.14,0.03 0.21,0.05 C 75.14,43.33 75.07,43.31 75,43.29"
             id="path15" />
          <path
             class="cls-7"
             d="m 96.95,30.29 c -0.36,-1.6 -1.32,-2.96 -2.71,-3.84 -0.98,-0.62 -2.11,-0.94 -3.26,-0.94 -2.12,0 -4.05,1.07 -5.17,2.85 -1.35,2.14 -1.22,4.8 0.14,6.76 -3.65,4.12 -8.71,4.31 -9.94,4.29 -3.69,-1.6 -7.23,-2.16 -10,-2.32 v 4 c 2.44,0.14 5.55,0.69 8.75,2.14 0,0 0,0 0.01,0 3.45,1.56 6.33,3.93 8.61,7.04 -0.13,0.17 -0.26,0.35 -0.38,0.54 -1.8,2.85 -0.94,6.65 1.9,8.44 0.98,0.62 2.11,0.95 3.27,0.95 2.11,0 4.05,-1.06 5.18,-2.85 1.81,-2.85 0.95,-6.64 -1.91,-8.45 -1.38,-0.87 -3.09,-1.11 -4.67,-0.75 -1.54,-2.16 -3.32,-4.02 -5.34,-5.57 2.52,-0.78 5.4,-2.27 7.78,-5.09 0.57,0.17 1.17,0.27 1.77,0.27 2.12,0 4.05,-1.07 5.17,-2.85 0.87,-1.38 1.16,-3.01 0.8,-4.6 M 86.38,52.93 c 0.17,-0.27 0.39,-0.49 0.67,-0.66 0.33,-0.21 0.72,-0.32 1.12,-0.32 0.4,0 0.79,0.11 1.12,0.32 0.99,0.63 1.28,1.94 0.66,2.92 -0.39,0.62 -1.06,0.99 -1.8,0.99 -0.4,0 -0.78,-0.11 -1.12,-0.33 -0.98,-0.62 -1.28,-1.94 -0.66,-2.92 m 6.39,-20.18 c -0.6,0.95 -1.94,1.27 -2.91,0.65 l -0.1,-0.06 c -0.91,-0.65 -1.16,-1.9 -0.56,-2.85 0.38,-0.61 1.05,-0.98 1.78,-0.98 0.4,0 0.79,0.11 1.12,0.33 0.48,0.31 0.81,0.77 0.94,1.33 0.12,0.55 0.03,1.11 -0.28,1.58"
             id="path16" />
          <path
             class="cls-7"
             d="m 105.65,71.27 c 0.42,1.03 1.14,1.96 2.11,2.65 0.07,0.05 0.15,0.1 0.28,0.19 0.98,0.62 2.11,0.95 3.27,0.95 2.12,0 4.05,-1.07 5.17,-2.85 0.88,-1.38 1.16,-3.01 0.8,-4.61 -0.36,-1.6 -1.32,-2.96 -2.71,-3.84 -0.98,-0.62 -2.11,-0.94 -3.27,-0.94 -0.12,0 -0.25,0 -0.37,0.02 -0.71,-3.16 -0.92,-7.77 0.03,-11.26 0.11,0.01 0.23,0.02 0.34,0.02 2.12,0 4.05,-1.07 5.17,-2.85 0.88,-1.38 1.16,-3.01 0.8,-4.6 -0.36,-1.6 -1.32,-2.96 -2.71,-3.84 -0.98,-0.62 -2.11,-0.94 -3.27,-0.94 -2.11,0 -4.05,1.07 -5.17,2.85 -1.6,2.53 -1.12,5.8 1.02,7.77 0.02,0.02 0.05,0.04 0.07,0.06 -1.35,4.52 -1.14,10.32 -0.04,14.42 -0.14,0.13 -0.29,0.26 -0.43,0.4 -0.23,0.26 -0.45,0.53 -0.63,0.82 -0.32,0.5 -0.55,1.03 -0.71,1.58 -3.37,0.49 -5.2,1.67 -6.82,2.73 -2.04,1.33 -3.96,2.57 -9.64,2.67 -1.96,-0.23 -3.55,-0.18 -5.29,-0.12 -1.43,0.05 -2.91,0.11 -4.85,0 -1.34,-0.07 -2.1,-0.88 -3.46,-2.42 -1.8,-2.06 -4.22,-4.65 -9.37,-5.02 v 4 c 3.29,0.3 4.8,1.89 6.36,3.67 1.49,1.69 3.17,3.62 6.26,3.78 2.12,0.11 3.76,0.05 5.21,0 2.49,-0.09 4.45,-0.16 7.85,0.68 2.61,0.64 12.1,9.67 14.77,14.32 -0.11,0.14 -0.22,0.28 -0.31,0.43 -1.74,2.76 -1.03,6.39 1.62,8.25 0.07,0.05 0.15,0.11 0.28,0.19 0.98,0.62 2.11,0.95 3.27,0.95 2.12,0 4.05,-1.07 5.17,-2.85 0.88,-1.37 1.16,-3.01 0.8,-4.6 -0.36,-1.6 -1.32,-2.96 -2.71,-3.84 -0.98,-0.62 -2.11,-0.94 -3.27,-0.94 -0.53,0 -1.05,0.07 -1.54,0.19 -2.56,-4.19 -8.65,-10.45 -13.19,-13.79 1.81,-0.63 3.05,-1.44 4.21,-2.19 1.43,-0.93 2.61,-1.69 4.86,-2.07 m 3.92,-26.95 c 0.39,-0.61 1.05,-0.98 1.78,-0.98 0.4,0 0.79,0.11 1.12,0.32 0.48,0.3 0.81,0.77 0.94,1.33 0.12,0.55 0.02,1.11 -0.28,1.58 -0.6,0.95 -1.94,1.27 -2.91,0.65 l -0.09,-0.06 c -0.92,-0.65 -1.16,-1.9 -0.56,-2.85 m 0,23.48 c 0.39,-0.62 1.05,-0.98 1.78,-0.98 0.4,0 0.79,0.11 1.12,0.33 0.48,0.31 0.81,0.77 0.94,1.33 0.12,0.55 0.02,1.11 -0.28,1.58 -0.6,0.95 -1.94,1.27 -2.91,0.65 l -0.09,-0.06 c -0.92,-0.65 -1.16,-1.9 -0.56,-2.85 m 0,26.3 c 0.39,-0.61 1.05,-0.98 1.78,-0.98 0.4,0 0.79,0.11 1.12,0.33 0.48,0.31 0.81,0.78 0.94,1.33 0.12,0.55 0.02,1.11 -0.28,1.58 -0.6,0.95 -1.94,1.27 -2.91,0.66 l -0.09,-0.06 c -0.92,-0.65 -1.16,-1.9 -0.56,-2.85"
             id="path17" />
          <path
             class="cls-6"
             d="M 61,66.55 V 38.89 H 22.08 c -2.56,0 -3.25,3.25 -3.25,3.25 v 77.67 L 61,144.01 V 114.95 C 55.99,114.75 38.62,112.51 38.62,91.24 38.62,71.25 54.7,67.33 61,66.56 Z"
             id="path18" />
          <path
             class="cls-7"
             d="m 61,69.29 v -4.01 c -13.97,0.11 -25.3,11.5 -25.3,25.49 0,13.99 11.33,25.39 25.3,25.49 v -4.01 C 49.24,112.14 39.7,102.55 39.7,90.76 39.7,78.97 49.24,69.38 61,69.27 Z"
             id="path19" />
          <g
             id="g26">
            <g
               class="cls-10"
               id="g22">
              <path
                 class="cls-2"
                 d="m 21.08,97.77 c 0.24,0 0.49,-0.07 0.71,-0.22 0.56,-0.39 0.69,-1.17 0.3,-1.72 -0.28,-0.4 -0.53,-0.82 -0.75,-1.25 -1.46,-2.96 -1.27,-6.38 0.51,-9.16 0.37,-0.58 0.2,-1.34 -0.37,-1.71 -0.57,-0.37 -1.34,-0.2 -1.71,0.37 -2.23,3.47 -2.47,7.91 -0.65,11.6 0.27,0.55 0.59,1.08 0.94,1.58 0.24,0.34 0.63,0.52 1.02,0.52"
                 id="path20" />
              <path
                 class="cls-2"
                 d="m 15.4,100.71 c 0.25,0 0.5,-0.08 0.72,-0.24 0.55,-0.4 0.67,-1.17 0.27,-1.73 -0.46,-0.63 -0.87,-1.31 -1.22,-2.02 -2.28,-4.61 -1.79,-10.03 1.28,-14.16 0.41,-0.55 0.29,-1.32 -0.25,-1.73 -0.55,-0.41 -1.32,-0.29 -1.73,0.25 -3.63,4.88 -4.21,11.28 -1.51,16.73 0.41,0.84 0.9,1.64 1.45,2.38 0.24,0.33 0.62,0.51 1,0.51"
                 id="path21" />
              <path
                 class="cls-2"
                 d="m 26.64,94.65 c 0.2,0 0.41,-0.05 0.6,-0.16 0.59,-0.34 0.8,-1.09 0.47,-1.68 -0.78,-1.37 -0.84,-3.04 -0.18,-4.47 0.29,-0.62 0.02,-1.35 -0.6,-1.64 -0.62,-0.29 -1.35,-0.01 -1.64,0.61 -0.99,2.15 -0.89,4.66 0.28,6.72 0.23,0.4 0.65,0.63 1.08,0.63"
                 id="path22" />
            </g>
            <g
               id="g25">
              <path
                 class="cls-5"
                 d="m 21.08,95.72 c 0.24,0 0.49,-0.07 0.71,-0.22 0.56,-0.39 0.69,-1.17 0.3,-1.72 -0.28,-0.4 -0.53,-0.82 -0.75,-1.25 -1.46,-2.96 -1.27,-6.38 0.51,-9.16 0.37,-0.58 0.2,-1.34 -0.37,-1.71 -0.57,-0.37 -1.34,-0.2 -1.71,0.37 -2.23,3.47 -2.47,7.91 -0.65,11.6 0.27,0.55 0.59,1.08 0.94,1.58 0.24,0.34 0.63,0.52 1.02,0.52"
                 id="path23" />
              <path
                 class="cls-5"
                 d="m 15.4,98.67 c 0.25,0 0.5,-0.08 0.72,-0.24 0.55,-0.4 0.67,-1.17 0.27,-1.73 -0.46,-0.63 -0.87,-1.31 -1.22,-2.02 -2.28,-4.61 -1.79,-10.03 1.28,-14.16 0.41,-0.55 0.29,-1.32 -0.25,-1.73 -0.55,-0.41 -1.32,-0.29 -1.73,0.25 -3.63,4.88 -4.21,11.28 -1.51,16.73 0.41,0.84 0.9,1.64 1.45,2.38 0.24,0.33 0.62,0.51 1,0.51"
                 id="path24" />
              <path
                 class="cls-5"
                 d="m 26.64,92.6 c 0.2,0 0.41,-0.05 0.6,-0.16 0.59,-0.34 0.8,-1.09 0.47,-1.68 -0.78,-1.37 -0.84,-3.04 -0.18,-4.47 0.29,-0.62 0.02,-1.35 -0.6,-1.64 -0.62,-0.29 -1.35,-0.01 -1.64,0.61 -0.99,2.15 -0.89,4.66 0.28,6.72 0.23,0.4 0.65,0.63 1.08,0.63"
                 id="path25" />
            </g>
          </g>
        </g>
        <g
           id="g44">
          <g
             id="g31">
            <path
               class="cls-3"
               d="m 167.4,109.87 h 26.85 v 11.87 H 151.97 V 57.76 h 15.42 v 52.12 z"
               id="path27" />
            <path
               class="cls-3"
               d="m 200.01,97.52 c 0,-4.75 0.92,-8.97 2.77,-12.68 1.85,-3.71 4.5,-6.55 7.95,-8.55 3.45,-2 7.51,-2.99 12.17,-2.99 7.12,0 12.73,2.21 16.83,6.61 4.1,4.41 6.15,10.41 6.15,18 v 0.53 c 0,7.41 -2.06,13.29 -6.17,17.64 -4.12,4.35 -9.69,6.53 -16.72,6.53 -7.03,0 -12.2,-2.03 -16.3,-6.09 -4.1,-4.06 -6.31,-9.56 -6.64,-16.5 z m 14.81,0.92 c 0,4.39 0.69,7.62 2.07,9.67 1.38,2.05 3.41,3.08 6.11,3.08 5.27,0 7.97,-4.06 8.09,-12.17 v -1.49 c 0,-8.53 -2.72,-12.79 -8.17,-12.79 -4.95,0 -7.63,3.68 -8.04,11.03 l -0.04,2.68 z"
               id="path28" />
            <path
               class="cls-3"
               d="m 274.32,111.18 c 2.08,0 3.69,-0.56 4.83,-1.69 1.14,-1.13 1.7,-2.7 1.67,-4.72 h 13.89 c 0,5.21 -1.87,9.49 -5.6,12.83 -3.73,3.34 -8.55,5.01 -14.44,5.01 -6.91,0 -12.36,-2.17 -16.35,-6.5 -3.99,-4.33 -5.98,-10.34 -5.98,-18.02 v -0.62 c 0,-4.8 0.89,-9.04 2.66,-12.72 1.77,-3.68 4.33,-6.5 7.67,-8.48 3.34,-1.98 7.29,-2.97 11.87,-2.97 6.18,0 11.09,1.71 14.72,5.14 3.63,3.43 5.45,8.07 5.45,13.93 h -13.89 c 0,-2.46 -0.6,-4.35 -1.8,-5.67 -1.2,-1.32 -2.81,-1.98 -4.83,-1.98 -3.84,0 -6.08,2.45 -6.72,7.34 -0.21,1.55 -0.31,3.69 -0.31,6.42 0,4.78 0.57,8.09 1.71,9.93 1.14,1.84 2.96,2.77 5.45,2.77 z"
               id="path29" />
            <path
               class="cls-3"
               d="m 329.55,121.73 c -0.53,-0.97 -1,-2.39 -1.41,-4.26 -2.72,3.43 -6.53,5.14 -11.43,5.14 -4.48,0 -8.29,-1.35 -11.43,-4.06 -3.14,-2.71 -4.7,-6.12 -4.7,-10.22 0,-5.16 1.9,-9.05 5.71,-11.69 3.81,-2.64 9.35,-3.96 16.61,-3.96 h 4.57 v -2.52 c 0,-4.39 -1.89,-6.58 -5.67,-6.58 -3.52,0 -5.27,1.74 -5.27,5.21 h -14.81 c 0,-4.59 1.96,-8.33 5.87,-11.19 3.91,-2.87 8.9,-4.3 14.96,-4.3 6.06,0 10.85,1.48 14.37,4.44 3.52,2.96 5.32,7.02 5.41,12.17 v 21.05 c 0.06,4.37 0.73,7.71 2.02,10.02 v 0.75 h -14.81 z m -9.27,-9.67 c 1.85,0 3.38,-0.4 4.59,-1.19 1.21,-0.79 2.09,-1.68 2.61,-2.68 v -7.6 h -4.31 c -5.16,0 -7.73,2.31 -7.73,6.94 0,1.35 0.45,2.44 1.36,3.27 0.91,0.83 2.07,1.25 3.47,1.25 z"
               id="path30" />
            <path
               class="cls-3"
               d="m 367.96,121.73 h -14.85 v -67.5 h 14.85 z"
               id="path31" />
          </g>
          <g
             id="g43">
            <path
               class="cls-5"
               d="m 157.92,41.87 h 11.63 v 5.14 H 151.23 V 19.28 h 6.68 v 22.58 z"
               id="path32" />
            <path
               class="cls-5"
               d="m 172.03,21.07 c 0,-0.92 0.33,-1.67 0.99,-2.26 0.66,-0.59 1.52,-0.88 2.57,-0.88 1.05,0 1.91,0.29 2.57,0.88 0.66,0.59 0.99,1.34 0.99,2.26 0,0.92 -0.33,1.67 -0.99,2.26 -0.66,0.59 -1.52,0.88 -2.57,0.88 -1.05,0 -1.91,-0.29 -2.57,-0.88 -0.66,-0.59 -0.99,-1.34 -0.99,-2.26 z m 6.82,25.94 h -6.44 v -20.6 h 6.44 z"
               id="path33" />
            <path
               class="cls-5"
               d="m 193.59,41.22 c 0,-0.55 -0.29,-0.98 -0.86,-1.31 -0.57,-0.33 -1.66,-0.67 -3.26,-1.03 -1.6,-0.36 -2.92,-0.82 -3.96,-1.4 -1.04,-0.58 -1.83,-1.28 -2.38,-2.1 -0.55,-0.82 -0.82,-1.77 -0.82,-2.84 0,-1.89 0.78,-3.45 2.34,-4.67 1.56,-1.23 3.61,-1.84 6.13,-1.84 2.72,0 4.9,0.62 6.55,1.85 1.65,1.23 2.48,2.85 2.48,4.86 h -6.44 c 0,-1.65 -0.87,-2.48 -2.61,-2.48 -0.67,0 -1.24,0.19 -1.7,0.56 -0.46,0.38 -0.69,0.84 -0.69,1.4 0,0.56 0.28,1.04 0.84,1.39 0.56,0.35 1.45,0.65 2.68,0.88 1.22,0.23 2.3,0.5 3.23,0.82 3.1,1.07 4.65,2.98 4.65,5.73 0,1.88 -0.83,3.41 -2.5,4.59 -1.67,1.18 -3.83,1.77 -6.48,1.77 -1.76,0 -3.34,-0.32 -4.72,-0.95 -1.38,-0.63 -2.46,-1.5 -3.24,-2.59 -0.78,-1.09 -1.16,-2.24 -1.16,-3.45 h 6 c 0.03,0.95 0.34,1.65 0.95,2.08 0.61,0.44 1.39,0.66 2.34,0.66 0.88,0 1.53,-0.18 1.97,-0.53 0.44,-0.36 0.66,-0.82 0.66,-1.39 z"
               id="path34" />
            <path
               class="cls-5"
               d="m 210.25,21.28 v 5.12 h 3.39 v 4.46 h -3.39 v 9.43 c 0,0.78 0.14,1.31 0.42,1.62 0.28,0.3 0.83,0.46 1.66,0.46 0.63,0 1.17,-0.04 1.6,-0.11 v 4.59 c -1.16,0.37 -2.36,0.55 -3.62,0.55 -2.21,0 -3.84,-0.52 -4.89,-1.56 -1.05,-1.04 -1.58,-2.62 -1.58,-4.74 V 30.87 h -2.63 v -4.46 h 2.63 v -5.12 h 6.42 z"
               id="path35" />
            <path
               class="cls-5"
               d="m 226.13,47.39 c -3.16,0 -5.72,-0.94 -7.67,-2.83 -1.96,-1.88 -2.93,-4.34 -2.93,-7.36 v -0.53 c 0,-2.11 0.39,-3.97 1.17,-5.58 0.78,-1.61 1.92,-2.86 3.42,-3.74 1.5,-0.88 3.28,-1.32 5.33,-1.32 2.89,0 5.18,0.9 6.86,2.69 1.68,1.8 2.51,4.3 2.51,7.51 v 2.5 h -12.76 c 0.23,1.16 0.73,2.06 1.5,2.72 0.77,0.66 1.78,0.99 3.01,0.99 2.03,0 3.62,-0.71 4.76,-2.13 l 2.93,3.47 c -0.8,1.1 -1.93,1.98 -3.4,2.64 -1.47,0.65 -3.04,0.98 -4.73,0.98 z m -0.72,-16.41 c -1.88,0 -3,1.24 -3.35,3.73 h 6.47 v -0.5 c 0.03,-1.03 -0.24,-1.83 -0.78,-2.39 -0.55,-0.57 -1.33,-0.85 -2.34,-0.85 z"
               id="path36" />
            <path
               class="cls-5"
               d="m 243.29,26.41 0.21,2.42 c 1.42,-1.87 3.38,-2.8 5.88,-2.8 2.15,0 3.75,0.64 4.81,1.92 1.06,1.28 1.61,3.21 1.65,5.79 V 47.01 H 249.4 V 34 c 0,-1.04 -0.21,-1.81 -0.63,-2.29 -0.42,-0.49 -1.18,-0.73 -2.29,-0.73 -1.26,0 -2.19,0.5 -2.8,1.49 v 14.55 h -6.42 v -20.6 h 6.02 z"
               id="path37" />
            <path
               class="cls-5"
               d="M 259.69,47.01 V 19.28 h 9.96 c 3.57,0 6.28,0.65 8.14,1.96 1.86,1.31 2.79,3.21 2.79,5.69 0,1.43 -0.33,2.66 -0.99,3.67 -0.66,1.02 -1.63,1.77 -2.91,2.25 1.45,0.38 2.56,1.09 3.33,2.13 0.77,1.04 1.16,2.31 1.16,3.81 0,2.72 -0.86,4.76 -2.58,6.12 -1.72,1.36 -4.27,2.06 -7.65,2.08 h -11.25 z m 6.68,-16.17 h 3.48 c 1.46,-0.01 2.5,-0.28 3.12,-0.8 0.62,-0.52 0.93,-1.29 0.93,-2.31 0,-1.17 -0.34,-2.02 -1.01,-2.53 -0.67,-0.51 -1.76,-0.77 -3.26,-0.77 h -3.28 v 6.42 z m 0,4.38 v 6.65 h 4.38 c 1.21,0 2.13,-0.28 2.78,-0.83 0.65,-0.55 0.97,-1.33 0.97,-2.33 0,-2.31 -1.15,-3.47 -3.45,-3.48 h -4.68 z"
               id="path38" />
            <path
               class="cls-5"
               d="m 297.01,32.21 -2.11,-0.15 c -2.02,0 -3.31,0.64 -3.88,1.9 V 47 H 284.6 V 26.4 h 6.02 l 0.21,2.65 c 1.08,-2.02 2.58,-3.03 4.51,-3.03 0.69,0 1.28,0.08 1.79,0.23 l -0.11,5.96 z"
               id="path39" />
            <path
               class="cls-5"
               d="m 310.36,47.01 c -0.23,-0.42 -0.43,-1.03 -0.61,-1.85 -1.18,1.49 -2.83,2.23 -4.95,2.23 -1.94,0 -3.59,-0.59 -4.95,-1.76 -1.36,-1.17 -2.04,-2.65 -2.04,-4.43 0,-2.23 0.82,-3.92 2.47,-5.06 1.65,-1.14 4.05,-1.71 7.2,-1.71 h 1.98 v -1.09 c 0,-1.9 -0.82,-2.85 -2.46,-2.85 -1.52,0 -2.29,0.75 -2.29,2.26 h -6.42 c 0,-1.99 0.85,-3.61 2.54,-4.85 1.69,-1.24 3.86,-1.86 6.48,-1.86 2.62,0 4.7,0.64 6.23,1.92 1.52,1.28 2.3,3.04 2.34,5.28 v 9.12 c 0.03,1.89 0.32,3.34 0.88,4.34 v 0.32 h -6.42 z m -4.02,-4.19 c 0.8,0 1.46,-0.17 1.99,-0.51 0.53,-0.34 0.91,-0.73 1.13,-1.16 v -3.29 h -1.87 c -2.23,0 -3.35,1 -3.35,3.01 0,0.58 0.2,1.06 0.59,1.42 0.39,0.36 0.9,0.54 1.5,0.54 z"
               id="path40" />
            <path
               class="cls-5"
               d="m 319.41,21.07 c 0,-0.92 0.33,-1.67 0.99,-2.26 0.66,-0.59 1.52,-0.88 2.57,-0.88 1.05,0 1.91,0.29 2.57,0.88 0.66,0.59 0.99,1.34 0.99,2.26 0,0.92 -0.33,1.67 -0.99,2.26 -0.66,0.59 -1.52,0.88 -2.57,0.88 -1.05,0 -1.91,-0.29 -2.57,-0.88 -0.66,-0.59 -0.99,-1.34 -0.99,-2.26 z m 6.81,25.94 h -6.44 v -20.6 h 6.44 z"
               id="path41" />
            <path
               class="cls-5"
               d="m 336.07,26.41 0.21,2.42 c 1.42,-1.87 3.38,-2.8 5.88,-2.8 2.15,0 3.75,0.64 4.81,1.92 1.06,1.28 1.61,3.21 1.65,5.79 v 13.27 h -6.44 V 34 c 0,-1.04 -0.21,-1.81 -0.63,-2.29 -0.42,-0.49 -1.18,-0.73 -2.29,-0.73 -1.26,0 -2.19,0.5 -2.8,1.49 v 14.55 h -6.42 v -20.6 h 6.02 z"
               id="path42" />
            <path
               class="cls-5"
               d="m 359.74,42.06 h 9.39 v 4.95 h -17.5 v -3.58 l 9.14,-12.07 h -8.74 v -4.95 h 16.89 v 3.47 l -9.18,12.19 z"
               id="path43" />
          </g>
        </g>
      </g>
    </g>
  </g>
  <text
     xml:space="preserve"
     style="font-style:normal;font-variant:normal;font-weight:normal;font-stretch:normal;font-size:41.7128px;line-height:2.05;font-family:'Roboto Slab';-inkscape-font-specification:'Roboto Slab';letter-spacing:2px;word-spacing:5.04px;stroke-width:1.04283"
     x="193.44749"
     y="164.89975"
     id="text45"
     transform="scale(1.0428267,0.9589321)"><tspan
       id="tspan45"
       x="193.44749"
       y="164.89975"
       style="font-style:normal;font-variant:normal;font-weight:800;font-stretch:normal;line-height:2.05;font-family:Lato;-inkscape-font-specification:'Lato Ultra-Bold';letter-spacing:2px;word-spacing:5.04px;fill:#d40000;stroke-width:1.04283"
       dx="1.92">BETA</tspan></text>
  <path
     style="fill:#41232a;fill-opacity:0;stroke-width:0.163083"
     d="m 207.1154,143.58928 v -14.45871 l 7.21642,0.0787 c 5.62781,0.0614 7.46773,0.1335 8.35801,0.32759 3.82111,0.83305 5.96267,2.30777 6.85868,4.723 0.23581,0.63563 0.31697,1.27195 0.31697,2.48522 0,1.45437 -0.0492,1.73101 -0.4547,2.55674 -0.63001,1.28293 -2.03482,2.5457 -3.59466,3.23119 -0.68053,0.29908 -1.20449,0.59691 -1.16434,0.66186 0.0401,0.0649 0.34899,0.16964 0.68634,0.23264 1.01696,0.18991 2.89938,1.14784 3.69283,1.87922 0.41047,0.37836 0.94963,1.10194 1.19813,1.60796 0.41055,0.83602 0.45181,1.08385 0.45181,2.71395 0,1.7262 -0.0222,1.84007 -0.58895,3.01703 -1.23275,2.56018 -3.3166,4.08521 -6.83132,4.99941 -0.90125,0.23442 -2.18991,0.28524 -8.60263,0.33931 l -7.54259,0.0636 z m 13.78616,9.85697 c 1.95095,-0.36065 3.16939,-1.40659 3.50135,-3.00563 0.45751,-2.2038 -0.32332,-3.74591 -2.28387,-4.51057 -0.80294,-0.31316 -1.30295,-0.35757 -4.77018,-0.42364 l -3.87322,-0.0738 v 4.09578 4.09579 h 3.23171 c 1.77743,0 3.66483,-0.0801 4.19421,-0.17793 z m -0.32531,-12.13889 c 2.07071,-0.52977 3.01331,-1.70236 3.00695,-3.74064 -0.006,-1.92814 -0.77692,-3.11024 -2.36112,-3.62051 -0.60354,-0.1944 -1.7159,-0.28278 -4.28093,-0.34016 l -3.46551,-0.0775 v 4.01375 4.01375 h 3.06431 c 2.21233,0 3.33456,-0.0691 4.0363,-0.24868 z"
     id="path45" />
  <path
     style="fill:#41232a;fill-opacity:0;stroke-width:0.163083"
     d="m 207.1154,143.58928 v -14.45871 l 7.21642,0.0787 c 5.62781,0.0614 7.46773,0.1335 8.35801,0.32759 3.82111,0.83305 5.96267,2.30777 6.85868,4.723 0.23581,0.63563 0.31697,1.27195 0.31697,2.48522 0,1.45437 -0.0492,1.73101 -0.4547,2.55674 -0.63001,1.28293 -2.03482,2.5457 -3.59466,3.23119 -0.68053,0.29908 -1.20449,0.59691 -1.16434,0.66186 0.0401,0.0649 0.34899,0.16964 0.68634,0.23264 1.01696,0.18991 2.89938,1.14784 3.69283,1.87922 0.41047,0.37836 0.94963,1.10194 1.19813,1.60796 0.41055,0.83602 0.45181,1.08385 0.45181,2.71395 0,1.7262 -0.0222,1.84007 -0.58895,3.01703 -1.23275,2.56018 -3.3166,4.08521 -6.83132,4.99941 -0.90125,0.23442 -2.18991,0.28524 -8.60263,0.33931 l -7.54259,0.0636 z m 13.78616,9.85697 c 1.95095,-0.36065 3.16939,-1.40659 3.50135,-3.00563 0.45751,-2.2038 -0.32332,-3.74591 -2.28387,-4.51057 -0.80294,-0.31316 -1.30295,-0.35757 -4.77018,-0.42364 l -3.87322,-0.0738 v 4.09578 4.09579 h 3.23171 c 1.77743,0 3.66483,-0.0801 4.19421,-0.17793 z m -0.32531,-12.13889 c 2.07071,-0.52977 3.01331,-1.70236 3.00695,-3.74064 -0.006,-1.92814 -0.77692,-3.11024 -2.36112,-3.62051 -0.60354,-0.1944 -1.7159,-0.28278 -4.28093,-0.34016 l -3.46551,-0.0775 v 4.01375 4.01375 h 3.06431 c 2.21233,0 3.33456,-0.0691 4.0363,-0.24868 z"
     id="path46" />
  <path
     style="fill:#41232a;fill-opacity:0;stroke-width:0.163083"
     d="m 238.10117,143.59457 v -14.43284 h 9.94806 9.94806 v 2.28316 2.28316 h -6.76794 -6.76794 v 3.83245 3.83245 h 5.30019 5.3002 v 2.20162 2.20163 h -5.3002 -5.30019 v 3.83245 3.83245 h 6.76794 6.76794 v 2.28316 2.28316 h -9.94806 -9.94806 z"
     id="path47" />
</svg>
